<svg width="320" height="320" fill="none" xmlns="http://www.w3.org/2000/svg"><path fill-rule="evenodd" clip-rule="evenodd" d="M0 48.115C0 21.542 21.542 0 48.115 0h223.77C298.458 0 320 21.542 320 48.115v223.77C320 298.458 298.458 320 271.885 320H48.115C21.542 320 0 298.458 0 271.885V48.115ZM258 34a6 6 0 1 0 0-12 6 6 0 0 0 0 12Zm40-6a6 6 0 1 1-12 0 6 6 0 0 1 12 0Zm-23 6a6 6 0 1 0 0-12 6 6 0 0 0 0 12Z" fill="#001"/><path d="M252 96h-36v36h36V96Zm0 89h-36v36h36v-36Zm-36-45h36v37h-36v-37Zm81-44h-37v36h37V96Z" fill="#00D1FF"/><path d="M24.52 97.322a6.5 6.5 0 0 1 9.158-.801l68.944 57.851a6.483 6.483 0 0 1 2.322 5.052 6.484 6.484 0 0 1-2.322 5.055L33.678 222.33a6.5 6.5 0 1 1-8.356-9.958l63.099-52.946-63.099-52.947a6.5 6.5 0 0 1-.801-9.157ZM111.5 211a6.5 6.5 0 1 0 0 13h90a6.5 6.5 0 1 0 0-13h-90Z" fill="#fff"/></svg>