<svg xmlns="http://www.w3.org/2000/svg" viewBox="0 0 1440 770">
    <style>
        @keyframes fill-change {
            0% { fill: #d4d7d8; }
            60% { fill: #5f6162; transform: scale(1.002,1.002) }
            100% { fill: #d4d7d8; }
        }

        use.a {
            fill: #d4d7d8;
            animation-name: fill-change;
            animation-timing-function: cubic-bezier(1, 0, 0, 1);
            animation-duration: .4s;
        }

        .l1 {
            animation-delay: .05s;
        }
        .l2 {
            animation-delay: .15s;
        }
        .l3 {
            animation-delay: .25s;
        }
        .l4 {
            animation-delay: .35s;
        }
        .l5 {
            animation-delay: .45s;
        }
        .l6 {
            animation-delay: .55s;
        }
        .l7 {
            animation-delay: .65s;
        }
        .l8 {
            animation-delay: .75s;
        }
        .l9 {
            animation-delay: .85s;
        }
        .l10 {
            animation-delay: .95s;
        }
        .l11 {
            animation-delay: 1.05s;
        }
        .l12 {
            animation-delay: 1.15s;
        }
        .l13 {
            animation-delay: 1.25s;
        }
        .l14 {
            animation-delay: 1.35s;
        }
        .l15 {
            animation-delay: 1.45s;
        }
        .l16 {
            animation-delay: 1.55s;
        }
        .l17 {
            animation-delay: 1.65s;
        }
        .l18 {
            animation-delay: 1.75s;
        }
        .l19 {
            animation-delay: 1.85s;
        }
    </style>
    <defs>
        <symbol id="ln">
            <circle cx="1408" cy="34" r="2"/>
            <circle cx="1376" cy="34" r="2"/>
            <circle cx="1344" cy="34" r="2"/>
            <circle cx="1312" cy="34" r="2"/>
            <circle cx="1280" cy="34" r="2"/>
            <circle cx="1248" cy="34" r="2"/>
            <circle cx="1216" cy="34" r="2"/>
            <circle cx="1184" cy="34" r="2"/>
            <circle cx="1152" cy="34" r="2"/>
            <circle cx="1120" cy="34" r="2"/>
            <circle cx="1088" cy="34" r="2"/>
            <circle cx="1056" cy="34" r="2"/>
            <circle cx="1024" cy="34" r="2"/>
            <circle cx="992" cy="34" r="2"/>
            <circle cx="960" cy="34" r="2"/>
            <circle cx="928" cy="34" r="2"/>
            <circle cx="896" cy="34" r="2"/>
            <circle cx="864" cy="34" r="2"/>
            <circle cx="832" cy="34" r="2"/>
            <circle cx="800" cy="34" r="2"/>
            <circle cx="768" cy="34" r="2"/>
            <circle cx="736" cy="34" r="2"/>
            <circle cx="704" cy="34" r="2"/>
            <circle cx="672" cy="34" r="2"/>
            <circle cx="640" cy="34" r="2"/>
            <circle cx="608" cy="34" r="2"/>
            <circle cx="576" cy="34" r="2"/>
            <circle cx="544" cy="34" r="2"/>
            <circle cx="512" cy="34" r="2"/>
            <circle cx="480" cy="34" r="2"/>
            <circle cx="448" cy="34" r="2"/>
            <circle cx="416" cy="34" r="2"/>
            <circle cx="384" cy="34" r="2"/>
            <circle cx="352" cy="34" r="2"/>
            <circle cx="320" cy="34" r="2"/>
            <circle cx="288" cy="34" r="2"/>
            <circle cx="256" cy="34" r="2"/>
            <circle cx="224" cy="34" r="2"/>
            <circle cx="192" cy="34" r="2"/>
            <circle cx="160" cy="34" r="2"/>
            <circle cx="128" cy="34" r="2"/>
            <circle cx="96" cy="34" r="2"/>
            <circle cx="64" cy="34" r="2"/>
            <circle cx="32" cy="34" r="2"/>
        </symbol>
        <filter id="b" width="921.295" height="147.792" x="261.328" y="325.88" color-interpolation-filters="sRGB" filterUnits="userSpaceOnUse">
            <feFlood flood-opacity="0" result="BackgroundImageFix"/>
            <feColorMatrix in="SourceAlpha" values="0 0 0 0 0 0 0 0 0 0 0 0 0 0 0 0 0 0 127 0"/>
            <feOffset dx="2" dy="2"/>
            <feGaussianBlur stdDeviation="3"/>
            <feColorMatrix values="0 0 0 0 0 0 0 0 0 0 0 0 0 0 0 0 0 0 0.35 0"/>
            <feBlend in2="BackgroundImageFix" result="effect1_dropShadow"/>
            <feBlend in="SourceGraphic" in2="effect1_dropShadow" result="shape"/>
        </filter>
    </defs>
    <use class="a l19" y="640" href="#ln"/>
    <use class="a l18" y="608" href="#ln"/>
    <use class="a l17" y="576" href="#ln"/>
    <use class="a l16" y="544" href="#ln"/>
    <use class="a l15" y="512" href="#ln"/>
    <use class="a l14" y="480" href="#ln"/>
    <use class="a l13" y="448" href="#ln"/>
    <use class="a l12" y="416" href="#ln"/>
    <use class="a l11" y="384" href="#ln"/>
    <use class="a l10" y="352" href="#ln"/>
    <use class="a l9" y="320" href="#ln"/>
    <use class="a l8" y="288" href="#ln"/>
    <use class="a l7" y="256" href="#ln"/>
    <use class="a l6" y="224" href="#ln"/>
    <use class="a l5" y="192" href="#ln"/>
    <use class="a l4" y="160" href="#ln"/>
    <use class="a l3" y="128" href="#ln"/>
    <use class="a l2" y="96" href="#ln"/>
    <use class="a l1" y="64" href="#ln"/>
    <path fill="#222" d="M293.84 436.44c-11.616 0-21.12-4.032-28.512-12.096l2.16-1.872c3.84 3.744 7.824 6.528 11.952 8.352 4.224 1.824 9.024 2.736 14.4 2.736 7.392 0 13.392-1.584 18-4.752 4.608-3.168 6.912-7.632 6.912-13.392 0-2.688-.576-4.896-1.728-6.624-1.152-1.824-2.832-3.36-5.04-4.608-2.208-1.344-4.944-2.448-8.208-3.312-3.264-.96-6.96-1.92-11.088-2.88-4.032-.96-7.536-1.824-10.512-2.592-2.976-.864-5.472-1.92-7.488-3.168-1.92-1.248-3.408-2.784-4.464-4.608-.96-1.92-1.44-4.368-1.44-7.344 0-3.744.72-6.912 2.16-9.504 1.44-2.688 3.36-4.896 5.76-6.624 2.4-1.728 5.184-2.976 8.352-3.744 3.168-.864 6.528-1.296 10.08-1.296 6.048 0 11.184 1.056 15.408 3.168 4.32 2.016 7.296 4.56 8.928 7.632l-2.592 1.152c-1.824-2.976-4.8-5.232-8.928-6.768-4.128-1.536-8.592-2.304-13.392-2.304-3.072 0-6 .336-8.784 1.008-2.784.672-5.232 1.728-7.344 3.168-2.112 1.44-3.792 3.312-5.04 5.616-1.152 2.208-1.728 4.896-1.728 8.064 0 2.496.384 4.56 1.152 6.192.864 1.536 2.16 2.832 3.888 3.888 1.728 1.056 3.936 1.968 6.624 2.736 2.688.768 5.856 1.584 9.504 2.448 4.416 1.056 8.4 2.064 11.952 3.024 3.648.96 6.672 2.16 9.072 3.6 2.496 1.44 4.416 3.216 5.76 5.328 1.344 2.016 2.016 4.656 2.016 7.92 0 3.264-.672 6.24-2.016 8.928-1.344 2.592-3.216 4.848-5.616 6.768-2.4 1.824-5.328 3.264-8.784 4.32-3.456.96-7.248 1.44-11.376 1.44zm75.125-4.896l-1.152.72c-.672.48-1.632.96-2.88 1.44-1.152.48-2.544.912-4.176 1.296-1.632.48-3.456.72-5.472.72-3.456 0-6.48-1.056-9.072-3.168-2.592-2.112-3.888-4.896-3.888-8.352v-61.056h-10.8v-2.88h10.8V334.2h2.88v26.064h18v2.88h-18V424.2c.192 2.784 1.296 4.944 3.312 6.48 2.016 1.44 4.272 2.16 6.768 2.16 1.632 0 3.168-.144 4.608-.432 1.44-.384 2.688-.768 3.744-1.152 1.152-.48 2.016-.912 2.592-1.296.672-.384 1.056-.624 1.152-.72l1.584 2.304zm42.081 4.896c-5.184 0-9.984-1.104-14.4-3.312-4.416-2.208-8.256-5.136-11.52-8.784-3.168-3.648-5.664-7.776-7.488-12.384-1.728-4.608-2.592-9.312-2.592-14.112 0-5.184.864-10.08 2.592-14.688 1.728-4.704 4.128-8.832 7.2-12.384 3.168-3.552 6.864-6.384 11.088-8.496 4.224-2.112 8.832-3.168 13.824-3.168 3.456 0 6.672.528 9.648 1.584 3.072.96 5.904 2.304 8.496 4.032 2.592 1.632 4.896 3.6 6.912 5.904 2.112 2.208 3.936 4.56 5.472 7.056V329.88h2.88v99.36c0 1.92.768 2.88 2.304 2.88V435c-.864 0-1.488-.096-1.872-.288-1.056-.48-1.872-1.2-2.448-2.16-.576-1.056-.864-2.16-.864-3.312v-9.792c-1.632 2.496-3.552 4.8-5.76 6.912-2.112 2.016-4.464 3.792-7.056 5.328-2.496 1.536-5.136 2.688-7.92 3.456-2.784.864-5.616 1.296-8.496 1.296zm0-2.88c2.88 0 6-.624 9.36-1.872 3.36-1.248 6.48-2.88 9.36-4.896 2.88-2.112 5.28-4.56 7.2-7.344 2.016-2.784 3.12-5.712 3.312-8.784v-26.928c-1.056-2.976-2.688-5.76-4.896-8.352-2.208-2.688-4.704-4.992-7.488-6.912-2.784-2.016-5.76-3.6-8.928-4.752-3.168-1.152-6.24-1.728-9.216-1.728-4.896 0-9.312 1.056-13.248 3.168-3.84 2.016-7.152 4.704-9.936 8.064-2.784 3.36-4.944 7.2-6.48 11.52-1.44 4.32-2.16 8.688-2.16 13.104 0 4.704.864 9.216 2.592 13.536 1.728 4.224 4.08 8.016 7.056 11.376 2.976 3.264 6.48 5.904 10.512 7.92 4.032 1.92 8.352 2.88 12.96 2.88zm86.474 2.88c-4.896 0-9.504-1.008-13.824-3.024-4.32-2.112-8.112-4.896-11.376-8.352-3.168-3.552-5.712-7.68-7.632-12.384-1.824-4.704-2.736-9.648-2.736-14.832 0-5.28.912-10.224 2.736-14.832 1.92-4.704 4.512-8.832 7.776-12.384 3.264-3.552 7.056-6.336 11.376-8.352 4.32-2.112 8.88-3.168 13.68-3.168 4.8 0 9.36 1.056 13.68 3.168 4.32 2.016 8.064 4.8 11.232 8.352 3.264 3.552 5.856 7.68 7.776 12.384 1.92 4.608 2.88 9.552 2.88 14.832 0 5.184-.96 10.128-2.88 14.832-1.824 4.704-4.368 8.832-7.632 12.384-3.168 3.456-6.912 6.24-11.232 8.352-4.32 2.016-8.928 3.024-13.824 3.024zm-32.688-38.304c0 4.8.864 9.36 2.592 13.68 1.728 4.32 4.032 8.112 6.912 11.376 2.976 3.168 6.432 5.712 10.368 7.632 3.936 1.824 8.16 2.736 12.672 2.736 4.416 0 8.592-.96 12.528-2.88 4.032-1.92 7.536-4.512 10.512-7.776 3.072-3.264 5.472-7.056 7.2-11.376 1.728-4.32 2.592-8.928 2.592-13.824 0-4.8-.864-9.36-2.592-13.68-1.728-4.32-4.08-8.112-7.056-11.376-2.976-3.264-6.48-5.856-10.512-7.776-3.936-1.92-8.112-2.88-12.528-2.88s-8.64.96-12.672 2.88c-3.936 1.92-7.392 4.56-10.368 7.92-2.976 3.264-5.328 7.104-7.056 11.52-1.728 4.32-2.592 8.928-2.592 13.824zm110.151 38.304c-16.032 0-24.048-11.424-24.048-34.272v-41.904h2.88v41.904c0 20.928 7.056 31.392 21.168 31.392 3.552 0 7.056-.624 10.512-1.872 3.456-1.344 6.624-3.12 9.504-5.328 2.88-2.304 5.376-5.04 7.488-8.208 2.208-3.168 3.888-6.624 5.04-10.368v-47.52h2.88v68.976c0 1.92.768 2.88 2.304 2.88V435c-1.056 0-1.728-.096-2.016-.288-.96-.384-1.728-1.056-2.304-2.016-.576-1.056-.864-2.208-.864-3.456v-13.248c-3.264 6.336-7.824 11.328-13.68 14.976-5.856 3.648-12.144 5.472-18.864 5.472zm88.873-4.896l-1.152.72c-.672.48-1.632.96-2.88 1.44-1.152.48-2.544.912-4.176 1.296-1.632.48-3.456.72-5.472.72-3.456 0-6.48-1.056-9.072-3.168-2.592-2.112-3.888-4.896-3.888-8.352v-61.056h-10.8v-2.88h10.8V334.2h2.88v26.064h18v2.88h-18V424.2c.192 2.784 1.296 4.944 3.312 6.48 2.016 1.44 4.272 2.16 6.768 2.16 1.632 0 3.168-.144 4.608-.432 1.44-.384 2.688-.768 3.744-1.152 1.152-.48 2.016-.912 2.592-1.296.672-.384 1.056-.624 1.152-.72l1.584 2.304zm9.955-34.128v-2.88h40.752v2.88h-40.752zm85.953 39.024c-16.032 0-24.048-11.424-24.048-34.272v-41.904h2.88v41.904c0 20.928 7.056 31.392 21.168 31.392 3.552 0 7.056-.624 10.512-1.872 3.456-1.344 6.624-3.12 9.504-5.328 2.88-2.304 5.376-5.04 7.488-8.208 2.208-3.168 3.888-6.624 5.04-10.368v-47.52h2.88v68.976c0 1.92.768 2.88 2.304 2.88V435c-1.056 0-1.728-.096-2.016-.288-.96-.384-1.728-1.056-2.304-2.016-.576-1.056-.864-2.208-.864-3.456v-13.248c-3.264 6.336-7.824 11.328-13.68 14.976-5.856 3.648-12.144 5.472-18.864 5.472zm93.193 0c-3.36 0-6.528-.48-9.504-1.44-2.976-1.056-5.76-2.4-8.352-4.032-2.592-1.728-4.944-3.696-7.056-5.904-2.112-2.304-3.984-4.704-5.616-7.2v47.808h-2.88V360.264h2.88v15.84c1.536-2.496 3.408-4.752 5.616-6.768 2.208-2.112 4.56-3.936 7.056-5.472 2.592-1.536 5.28-2.688 8.064-3.456 2.784-.864 5.616-1.296 8.496-1.296 5.28 0 10.128 1.152 14.544 3.456 4.416 2.208 8.208 5.136 11.376 8.784 3.168 3.648 5.616 7.776 7.344 12.384 1.824 4.608 2.736 9.312 2.736 14.112 0 5.088-.864 9.984-2.592 14.688-1.632 4.608-3.984 8.688-7.056 12.24-2.976 3.552-6.624 6.384-10.944 8.496-4.224 2.112-8.928 3.168-14.112 3.168zm0-2.88c4.896 0 9.264-1.008 13.104-3.024 3.936-2.112 7.296-4.848 10.08-8.208 2.784-3.36 4.896-7.152 6.336-11.376 1.536-4.32 2.304-8.688 2.304-13.104 0-4.704-.864-9.216-2.592-13.536-1.728-4.32-4.08-8.112-7.056-11.376-2.976-3.36-6.48-6-10.512-7.92-4.032-2.016-8.352-3.024-12.96-3.024-2.88 0-6 .624-9.36 1.872-3.36 1.248-6.48 2.928-9.36 5.04-2.88 2.112-5.328 4.56-7.344 7.344-1.92 2.784-2.976 5.664-3.168 8.64v26.928c1.344 3.072 3.072 5.952 5.184 8.64 2.112 2.592 4.464 4.848 7.056 6.768 2.688 1.92 5.568 3.456 8.64 4.608 3.072 1.152 6.288 1.728 9.648 1.728zm83.886 2.88c-5.184 0-9.984-1.104-14.4-3.312-4.416-2.208-8.256-5.136-11.52-8.784-3.168-3.648-5.664-7.776-7.488-12.384-1.728-4.608-2.592-9.312-2.592-14.112 0-5.184.864-10.08 2.592-14.688 1.728-4.704 4.128-8.832 7.2-12.384 3.168-3.552 6.864-6.384 11.088-8.496 4.224-2.112 8.832-3.168 13.824-3.168 3.456 0 6.672.528 9.648 1.584 3.072.96 5.904 2.304 8.496 4.032 2.592 1.632 4.896 3.6 6.912 5.904 2.112 2.208 3.936 4.56 5.472 7.056V329.88h2.88v99.36c0 1.92.768 2.88 2.304 2.88V435c-.864 0-1.488-.096-1.872-.288-1.056-.48-1.872-1.2-2.448-2.16-.576-1.056-.864-2.16-.864-3.312v-9.792c-1.632 2.496-3.552 4.8-5.76 6.912-2.112 2.016-4.464 3.792-7.056 5.328-2.496 1.536-5.136 2.688-7.92 3.456-2.784.864-5.616 1.296-8.496 1.296zm0-2.88c2.88 0 6-.624 9.36-1.872 3.36-1.248 6.48-2.88 9.36-4.896 2.88-2.112 5.28-4.56 7.2-7.344 2.016-2.784 3.12-5.712 3.312-8.784v-26.928c-1.056-2.976-2.688-5.76-4.896-8.352-2.208-2.688-4.704-4.992-7.488-6.912-2.784-2.016-5.76-3.6-8.928-4.752-3.168-1.152-6.24-1.728-9.216-1.728-4.896 0-9.312 1.056-13.248 3.168-3.84 2.016-7.152 4.704-9.936 8.064-2.784 3.36-4.944 7.2-6.48 11.52-1.44 4.32-2.16 8.688-2.16 13.104 0 4.704.864 9.216 2.592 13.536 1.728 4.224 4.08 8.016 7.056 11.376 2.976 3.264 6.48 5.904 10.512 7.92 4.032 1.92 8.352 2.88 12.96 2.88zm74.087 2.88c-3.36 0-6.52-.576-9.5-1.728-2.977-1.248-5.569-2.88-7.777-4.896-2.112-2.112-3.792-4.56-5.04-7.344-1.248-2.784-1.872-5.76-1.872-8.928 0-3.168.72-6.048 2.16-8.64 1.536-2.592 3.648-4.8 6.336-6.624 2.784-1.92 6.053-3.408 9.793-4.464 3.84-1.056 8.02-1.584 12.53-1.584 4.32 0 8.69.384 13.1 1.152 4.42.672 8.4 1.68 11.95 3.024v-8.496c0-3.84-.57-7.344-1.72-10.512-1.16-3.264-2.84-6-5.04-8.208-2.12-2.304-4.71-4.08-7.78-5.328-2.98-1.248-6.29-1.872-9.94-1.872-3.64 0-7.53.816-11.66 2.448-4.13 1.536-8.305 3.792-12.529 6.768l-1.728-2.304c9.597-6.528 18.237-9.792 25.917-9.792 4.13 0 7.88.672 11.24 2.016 3.45 1.344 6.33 3.264 8.64 5.76 2.4 2.496 4.22 5.52 5.47 9.072 1.34 3.552 2.01 7.536 2.01 11.952v41.328c0 1.92.77 2.88 2.31 2.88V435c-1.06 0-1.73-.096-2.02-.288-.96-.384-1.73-1.056-2.3-2.016-.58-1.056-.87-2.208-.87-3.456v-6.912c-3.45 4.512-7.96 8.016-13.53 10.512-5.57 2.4-11.62 3.6-18.15 3.6zm0-2.88c6.44 0 12.29-1.2 17.57-3.6 5.38-2.4 9.36-5.616 11.95-9.648 1.44-2.016 2.16-3.984 2.16-5.904v-14.832c-7.68-2.976-16.03-4.464-25.05-4.464-4.23 0-8.07.432-11.52 1.296-3.36.864-6.291 2.112-8.787 3.744-2.4 1.632-4.272 3.6-5.616 5.904-1.344 2.208-2.016 4.704-2.016 7.488 0 2.784.528 5.424 1.584 7.92 1.152 2.4 2.688 4.512 4.608 6.336 1.92 1.824 4.176 3.264 6.767 4.32 2.59.96 5.38 1.44 8.35 1.44zm86.33-2.016s-.38.24-1.15.72c-.67.48-1.63.96-2.88 1.44-1.15.48-2.54.912-4.18 1.296-1.63.48-3.45.72-5.47.72-3.45 0-6.48-1.056-9.07-3.168s-3.89-4.896-3.89-8.352v-61.056h-10.8v-2.88h10.8V334.2h2.88v26.064h18v2.88h-18V424.2c.19 2.784 1.3 4.944 3.31 6.48 2.02 1.44 4.28 2.16 6.77 2.16 1.63 0 3.17-.144 4.61-.432 1.44-.384 2.69-.768 3.74-1.152 1.16-.48 2.02-.912 2.6-1.296.67-.384 1.05-.624 1.15-.72l1.58 2.304zm42.08 4.896c-4.89 0-9.55-1.008-13.97-3.024-4.32-2.112-8.11-4.944-11.37-8.496-3.27-3.648-5.86-7.824-7.78-12.528-1.92-4.8-2.88-9.888-2.88-15.264 0-5.28.91-10.224 2.74-14.832 1.82-4.608 4.32-8.64 7.49-12.096 3.26-3.456 7-6.144 11.23-8.064 4.32-2.016 8.93-3.024 13.82-3.024 4.99 0 9.65 1.008 13.97 3.024 4.42 2.016 8.21 4.752 11.38 8.208 3.26 3.456 5.85 7.536 7.77 12.24 1.92 4.704 2.88 9.744 2.88 15.12v1.584h-68.4c.39 4.8 1.49 9.312 3.31 13.536 1.92 4.128 4.37 7.728 7.35 10.8 2.97 3.072 6.38 5.52 10.22 7.344 3.94 1.728 8.07 2.592 12.39 2.592 2.88 0 5.66-.384 8.35-1.152 2.78-.768 5.37-1.824 7.77-3.168 2.4-1.44 4.52-3.12 6.34-5.04 1.82-1.92 3.26-4.032 4.32-6.336l2.74.72c-1.06 2.592-2.6 4.992-4.61 7.2-1.92 2.112-4.23 3.984-6.91 5.616-2.6 1.536-5.48 2.736-8.64 3.6-3.08.96-6.24 1.44-9.51 1.44zm32.26-40.032c-.29-4.992-1.35-9.6-3.17-13.824-1.82-4.224-4.22-7.824-7.2-10.8-2.88-3.072-6.24-5.472-10.08-7.2-3.84-1.728-7.97-2.592-12.38-2.592-4.42 0-8.55.864-12.39 2.592-3.84 1.728-7.25 4.128-10.22 7.2-2.88 3.072-5.19 6.72-6.91 10.944-1.73 4.224-2.74 8.784-3.03 13.68h65.38z" filter="url(#b)"/>
</svg>
